/* XPM */
static char * close_inactive_xpm[] = {
"14 34 39 1",
" 	c None",
".	c #000000",
"+	c #282828",
"@	c #292929",
"#	c #2B2B2B",
"$	c #2C2C2C",
"%	c #2B2C2C",
"&	c #9B9D9D",
"*	c #9EA0A0",
"=	c #A5A6A6",
"-	c #A7A9A9",
";	c #A7A8A8",
">	c #D4D6D6",
",	c #CCCECE",
"'	c #BABCBD",
")	c #B1B4B5",
"!	c #B3B6B6",
"~	c #B3B6B7",
"{	c #D1D3D3",
"]	c #B0B3B3",
"^	c #696E6F",
"/	c #494E50",
"(	c #4E5455",
"_	c #515658",
":	c #CFD1D1",
"<	c #A3A6A7",
"[	c #44494B",
"}	c #181F21",
"|	c #202628",
"1	c #232A2C",
"2	c #CFD1D0",
"3	c #A5A8A8",
"4	c #4A4F51",
"5	c #272D2F",
"6	c #2A3133",
"7	c #CFD0D0",
"8	c #A6A8A9",
"9	c #4C5253",
"0	c #2E3436",
"..............",
"..............",
"..............",
"..............",
"..............",
"..............",
"..............",
"..............",
"..............",
"+@#$%%%%%%$#@+",
"&*=-;;;;;;-=*&",
">,')!~~~~!)',>",
"{]^/(____(/^]{",
":<[}|1111|}[<:",
"234|566665|432",
"78916000061987",
"78916000061987",
"78916000061987",
"78916000061987",
"234|566665|432",
":<[}|1111|}[<:",
"{]^/(____(/^]{",
">,')!~~~~!)',>",
"&*=-;;;;;;-=*&",
"+@#$%%%%%%$#@+",
"..............",
"..............",
"..............",
"..............",
"..............",
"..............",
"..............",
"..............",
".............."};
