/* XPM */
static char * hide_active_xpm[] = {
"14 34 34 1",
" 	c None",
".	c #000000",
"+	c #343433",
"@	c #343435",
"#	c #343539",
"$	c #34353A",
"%	c #CBCBCA",
"&	c #CBCCCF",
"*	c #CCCED9",
"=	c #CDCEDE",
"-	c #CCCEDE",
";	c #CCCEDD",
">	c #FFFFFF",
",	c #FFFFE8",
"'	c #FFFFD9",
")	c #FFFFDC",
"!	c #FFFFDD",
"~	c #FFFEDC",
"{	c #FAEA63",
"]	c #F6E02B",
"^	c #F6E235",
"/	c #F7E33A",
"(	c #FBF6C8",
"_	c #F0DA26",
":	c #EACE00",
"<	c #EBD000",
"[	c #ECD100",
"}	c #FBF6CA",
"|	c #F0DC2F",
"1	c #ECD200",
"2	c #EDD300",
"3	c #FBF6CB",
"4	c #F1DD34",
"5	c #EDD400",
"..............",
"..............",
"..............",
"..............",
"..............",
"..............",
"..............",
"..............",
"..............",
"+@#$$$$$$$$#@+",
"%&*=-;;;;-=*&%",
">>,')!!!!)',>>",
">~{]^////^]{~>",
">(_:<[[[[<:_(>",
">}|<122221<|}>",
">34[255552[43>",
">34[255552[43>",
">34[255552[43>",
">34[255552[43>",
">}|<122221<|}>",
">(_:<[[[[<:_(>",
">~{]^////^]{~>",
">>,')!!!!)',>>",
"%&*=-;;;;-=*&%",
"+@#$$$$$$$$#@+",
"..............",
"..............",
"..............",
"..............",
"..............",
"..............",
"..............",
"..............",
".............."};
