/* XPM */
static char * hide_inactive_xpm[] = {
"14 34 37 1",
" 	c None",
".	c #000000",
"+	c #282828",
"@	c #282929",
"#	c #292929",
"$	c #292A2A",
"%	c #9C9D9D",
"&	c #9D9F9F",
"*	c #A0A1A1",
"=	c #A1A2A3",
"-	c #A1A2A2",
";	c #A0A2A2",
">	c #D3D5D5",
",	c #CFD1D1",
"'	c #C8CAC9",
")	c #C5C7C6",
"!	c #C6C8C7",
"~	c #CCCECE",
"{	c #BFC1C0",
"]	c #A2A5A1",
"^	c #959793",
"/	c #989A96",
"(	c #999B97",
"_	c #C9CBCB",
":	c #B7B9B8",
"<	c #91938F",
"[	c #7F817C",
"}	c #82847F",
"|	c #848680",
"1	c #C8CACB",
"2	c #B8BAB8",
"3	c #939591",
"4	c #858782",
"5	c #878983",
"6	c #B8BAB9",
"7	c #949692",
"8	c #888A85",
"..............",
"..............",
"..............",
"..............",
"..............",
"..............",
"..............",
"..............",
"..............",
"+@#$$$$$$$$#@+",
"%&*=-;;;;-=*&%",
">,'))!!!!))',>",
"~{]^/((((/^]{~",
"_:<[}||||}[<:_",
"123}455554}321",
"167|588885|761",
"167|588885|761",
"167|588885|761",
"167|588885|761",
"123}455554}321",
"_:<[}||||}[<:_",
"~{]^/((((/^]{~",
">,'))!!!!))',>",
"%&*=-;;;;-=*&%",
"+@#$$$$$$$$#@+",
"..............",
"..............",
"..............",
"..............",
"..............",
"..............",
"..............",
"..............",
".............."};
