/* XPM */
static char * maximize_inactive_xpm[] = {
"14 34 38 1",
" 	c None",
".	c #000000",
"+	c #282828",
"@	c #282929",
"#	c #2A2A2A",
"$	c #2B2B2B",
"%	c #2A2B2B",
"&	c #9C9D9D",
"*	c #9E9F9F",
"=	c #A2A4A4",
"-	c #A5A6A6",
";	c #A4A6A6",
">	c #D3D6D6",
",	c #CDCFCF",
"'	c #C0C2C1",
")	c #BABCBB",
"!	c #BBBDBC",
"~	c #BBBDBD",
"{	c #CFD1D1",
"]	c #B7B9B8",
"^	c #828482",
"/	c #6A6C69",
"(	c #6E706D",
"_	c #70726F",
":	c #CCCECF",
"<	c #ACAEAD",
"[	c #656764",
"}	c #454742",
"|	c #4A4C48",
"1	c #4D4F4B",
"2	c #CCCECE",
"3	c #ADAFAE",
"4	c #696B68",
"5	c #50524E",
"6	c #525450",
"7	c #ADAFAF",
"8	c #6C6E6A",
"9	c #555753",
"..............",
"..............",
"..............",
"..............",
"..............",
"..............",
"..............",
"..............",
"..............",
"+@#$%%%%%%$#@+",
"&*=-;;;;;;-=*&",
">,')!~~~~!)',>",
"{]^/(____(/^]{",
":<[}|1111|}[<:",
"234|566665|432",
"27816999961872",
"27816999961872",
"27816999961872",
"27816999961872",
"234|566665|432",
":<[}|1111|}[<:",
"{]^/(____(/^]{",
">,')!~~~~!)',>",
"&*=-;;;;;;-=*&",
"+@#$%%%%%%$#@+",
"..............",
"..............",
"..............",
"..............",
"..............",
"..............",
"..............",
"..............",
".............."};
