/* XPM */
static char * maximize_pressed_xpm[] = {
"14 34 34 1",
" 	c None",
".	c #000000",
"+	c #343433",
"@	c #343435",
"#	c #343537",
"$	c #343639",
"%	c #343638",
"&	c #CBCBCA",
"*	c #CBCCCE",
"=	c #CBD0D6",
"-	c #CBD1DA",
";	c #CBD1D9",
">	c #FFFFFF",
",	c #FFFFF2",
"'	c #FFFFE7",
")	c #FFFFE9",
"!	c #FFFFEA",
"~	c #FFF8E6",
"{	c #FFD28A",
"]	c #FFC160",
"^	c #FFC468",
"/	c #FFC56B",
"(	c #FEEED5",
"_	c #FCBB5A",
":	c #FCA322",
"<	c #FCA72C",
"[	c #FCA930",
"}	c #FEEED7",
"|	c #FDBE62",
"1	c #FCAB35",
"2	c #FCAD39",
"3	c #FEEFD8",
"4	c #FDBF65",
"5	c #FCAF3E",
"..............",
"..............",
"..............",
"..............",
"..............",
"..............",
"..............",
"..............",
"..............",
"+@#$%%%%%%$#@+",
"&*=-;;;;;;-=*&",
">>,')!!!!)',>>",
">~{]^////^]{~>",
">(_:<[[[[<:_(>",
">}|<122221<|}>",
">34[255552[43>",
">34[255552[43>",
">34[255552[43>",
">34[255552[43>",
">}|<122221<|}>",
">(_:<[[[[<:_(>",
">~{]^////^]{~>",
">>,')!!!!)',>>",
"&*=-;;;;;;-=*&",
"+@#$%%%%%%$#@+",
"..............",
"..............",
"..............",
"..............",
"..............",
"..............",
"..............",
"..............",
".............."};
