/* XPM */
static char * menu_inactive_xpm[] = {
"30 34 41 1",
" 	c None",
".	c #000000",
"+	c #010101",
"@	c #090B0B",
"#	c #0A0B0B",
"$	c #0A0B0C",
"%	c #070809",
"&	c #020202",
"*	c #040403",
"=	c #0E0E0D",
"-	c #121312",
";	c #121211",
">	c #060605",
",	c #161616",
"'	c #1E1E1D",
")	c #1C1D1C",
"!	c #1C1C1B",
"~	c #25292B",
"{	c #262A2C",
"]	c #272C2E",
"^	c #1D2122",
"/	c #363735",
"(	c #484A47",
"_	c #454744",
":	c #565854",
"<	c #747671",
"[	c #6F716C",
"}	c #6C6E6A",
"|	c #31383A",
"1	c #32393B",
"2	c #353C3E",
"3	c #61645F",
"4	c #5D5F5B",
"5	c #9C9E98",
"6	c #959792",
"7	c #92948E",
"8	c #2F3537",
"9	c #303639",
"0	c #595B57",
"a	c #8E918B",
"b	c #8B8D88",
"..............................",
"..............................",
"..............................",
"..............................",
"..............................",
"..............................",
"..............................",
"..............................",
"..............................",
"..............................",
"..............................",
"..............................",
"......................+.......",
"@@@#$%&....*=-;;-=*....>,')!!!",
"~~~{]^%....=/(__(/=....,:<[}}}",
"|||12]$....-(3443(-....'<56777",
"88891{#....;_4004_;....)[6abbb",
"88891{#....;_4004_;....)[6abbb",
"|||12]$....-(3443(-....'<56777",
"~~~{]^%....=/(__(/=....,:<[}}}",
"@@@#$%&....*=-;;-=*....>,')!!!",
"......................+.......",
"..............................",
"..............................",
"..............................",
"..............................",
"..............................",
"..............................",
"..............................",
"..............................",
"..............................",
"..............................",
"..............................",
".............................."};
