/* XPM */
static char * menu_active_xpm[] = {
"30 34 42 1",
" 	c None",
".	c #000000",
"+	c #010000",
"@	c #010100",
"#	c #210000",
"$	c #220000",
"%	c #240000",
"&	c #1B0000",
"*	c #070000",
"=	c #0A0500",
"-	c #281400",
";	c #351A00",
">	c #331900",
",	c #0A0900",
"'	c #262200",
")	c #342E00",
"!	c #312C00",
"~	c #302B00",
"{	c #830000",
"]	c #860000",
"^	c #8C0000",
"/	c #680000",
"(	c #9C4D00",
"_	c #D16700",
":	c #C86300",
"<	c #968700",
"[	c #CAB500",
"}	c #C1AD00",
"|	c #BDA900",
"1	c #B00000",
"2	c #B40000",
"3	c #BC0000",
"4	c #FF8B00",
"5	c #FF8500",
"6	c #FFF300",
"7	c #FFE800",
"8	c #FEE300",
"9	c #A80000",
"0	c #AC0000",
"a	c #FF7F00",
"b	c #F8DE00",
"c	c #F3D900",
"..............................",
"..............................",
"..............................",
"..............................",
"..............................",
"..............................",
"..............................",
"..............................",
"..............................",
"..............................",
"..............................",
"..............................",
".......+..@........@..@.......",
"###$%&*....=-;>>;-=....,')!~~~",
"{{{]^/&....-(_::_(-....'<[}|||",
"11123^%....;_4554_;....)[67888",
"99902]$....>:5aa5:>....!}7bccc",
"99902]$....>:5aa5:>....!}7bccc",
"11123^%....;_4554_;....)[67888",
"{{{]^/&....-(_::_(-....'<[}|||",
"###$%&*....=-;>>;-=....,')!~~~",
".......+..@........@..@.......",
"..............................",
"..............................",
"..............................",
"..............................",
"..............................",
"..............................",
"..............................",
"..............................",
"..............................",
"..............................",
"..............................",
".............................."};
