/* XPM */
static char * close_pressed_xpm[] = {
"14 34 32 1",
" 	c None",
".	c #000000",
"+	c #343333",
"@	c #343535",
"#	c #343838",
"$	c #343939",
"%	c #CBCACA",
"&	c #CBCECE",
"*	c #CCD7D7",
"=	c #CCDBDB",
"-	c #CCDADA",
";	c #FFFFFF",
">	c #FFEEEE",
",	c #FFE2E2",
"'	c #FFE4E4",
")	c #FFE5E5",
"!	c #FB7D7D",
"~	c #F74E4E",
"{	c #F85656",
"]	c #F85A5A",
"^	c #FCD0D0",
"/	c #F14848",
"(	c #ED0A0A",
"_	c #ED1515",
":	c #EE1A1A",
"<	c #FCD3D3",
"[	c #F25050",
"}	c #EE1F1F",
"|	c #EF2424",
"1	c #FCD4D4",
"2	c #F25454",
"3	c #EF2929",
"..............",
"..............",
"..............",
"..............",
"..............",
"..............",
"..............",
"..............",
"..............",
"+@#$$$$$$$$#@+",
"%&*==----==*&%",
";;>,'))))',>;;",
";,!~{]]]]{~!,;",
";^/(_::::_(/^;",
";<[_}||||}_[<;",
";12:|3333|:21;",
";12:|3333|:21;",
";12:|3333|:21;",
";12:|3333|:21;",
";<[_}||||}_[<;",
";^/(_::::_(/^;",
";,!~{]]]]{~!,;",
";;>,'))))',>;;",
"%&*==----==*&%",
"+@#$$$$$$$$#@+",
"..............",
"..............",
"..............",
"..............",
"..............",
"..............",
"..............",
"..............",
".............."};
