/* XPM */
static char * hide_pressed_xpm[] = {
"14 34 32 1",
" 	c None",
".	c #000000",
"+	c #343434",
"@	c #343435",
"#	c #343437",
"$	c #343438",
"%	c #CBCBCA",
"&	c #CBCCCE",
"*	c #CBCCD5",
"=	c #CBCDD8",
"-	c #FFFFFF",
";	c #FFFFF4",
">	c #FFFFEB",
",	c #FFFFEC",
"'	c #FFFFED",
")	c #FFFFE8",
"!	c #FFF795",
"~	c #FFF26F",
"{	c #FFF375",
"]	c #FFF379",
"^	c #FEFAD9",
"/	c #FCEC69",
"(	c #FCE635",
"_	c #FCE73E",
":	c #FCE743",
"<	c #FEFADA",
"[	c #FDED6F",
"}	c #FCE847",
"|	c #FCE84B",
"1	c #FEFBDB",
"2	c #FDED73",
"3	c #FCE94F",
"..............",
"..............",
"..............",
"..............",
"..............",
"..............",
"..............",
"..............",
"..............",
"+@#$$$$$$$$#@+",
"%&*========*&%",
"--;>,'''',>;--",
"-)!~{]]]]{~!)-",
"-^/(_::::_(/^-",
"-<[_}||||}_[<-",
"-12:|3333|:21-",
"-12:|3333|:21-",
"-12:|3333|:21-",
"-12:|3333|:21-",
"-<[_}||||}_[<-",
"-^/(_::::_(/^-",
"-)!~{]]]]{~!)-",
"--;>,'''',>;--",
"%&*========*&%",
"+@#$$$$$$$$#@+",
"..............",
"..............",
"..............",
"..............",
"..............",
"..............",
"..............",
"..............",
".............."};
