/* XPM */
static char * maximize_active_xpm[] = {
"14 34 33 1",
" 	c None",
".	c #000000",
"+	c #343433",
"@	c #343435",
"#	c #343639",
"$	c #34373A",
"%	c #CBCBCA",
"&	c #CBCDCF",
"*	c #CCD3D9",
"=	c #CCD5DE",
"-	c #CCD5DD",
";	c #FFFFFF",
">	c #FFFBE8",
",	c #FFF4D9",
"'	c #FFF5DC",
")	c #FFF6DD",
"!	c #FFEFDC",
"~	c #FFB063",
"{	c #FC932B",
"]	c #FD9835",
"^	c #FD9A3A",
"/	c #FDE2C8",
"(	c #F68D26",
"_	c #F46500",
":	c #F46C00",
"<	c #F47000",
"[	c #FDE3CA",
"}	c #F7922F",
"|	c #F57300",
"1	c #F57600",
"2	c #FDE4CB",
"3	c #F79434",
"4	c #F57900",
"..............",
"..............",
"..............",
"..............",
"..............",
"..............",
"..............",
"..............",
"..............",
"+@#$$$$$$$$#@+",
"%&*==----==*&%",
";;>,'))))',>;;",
";!~{]^^^^]{~!;",
";/(_:<<<<:_(/;",
";[}:|1111|:}[;",
";23<144441<32;",
";23<144441<32;",
";23<144441<32;",
";23<144441<32;",
";[}:|1111|:}[;",
";/(_:<<<<:_(/;",
";!~{]^^^^]{~!;",
";;>,'))))',>;;",
"%&*==----==*&%",
"+@#$$$$$$$$#@+",
"..............",
"..............",
"..............",
"..............",
"..............",
"..............",
"..............",
"..............",
".............."};
